{
  "accessors": [
    {
      "bufferView": 2,
      "componentType": 5126,
      "count": 65534,
      "max": [
        8.672605514526367,
        11.029825210571289,
        41.04353713989258
      ],
      "min": [
        -10.209826469421387,
        -9.133803367614746,
        10.129840850830078
      ],
      "type": "VEC3"
    },
    {
      "bufferView": 2,
      "byteOffset": 786408,
      "componentType": 5126,
      "count": 65534,
      "max": [
        0.9996587038040161,
        0.9999861121177673,
        0.9985733032226563
      ],
      "min": [
        -0.9971996545791626,
        -0.9999900460243225,
        -0.9997924566268921
      ],
      "type": "VEC3"
    },
    {
      "bufferView": 1,
      "componentType": 5126,
      "count": 65534,
      "max": [
        0.9990900158882141,
        0.35144001245498657
      ],
      "min": [
        0.00012199999764561653,
        0.00012199999764561653
      ],
      "type": "VEC2"
    },
    {
      "bufferView": 0,
      "componentType": 5125,
      "count": 298734,
      "type": "SCALAR"
    },
    {
      "bufferView": 2,
      "byteOffset": 1572816,
      "componentType": 5126,
      "count": 65532,
      "max": [
        9.115368843078613,
        10.8931884765625,
        37.81853485107422
      ],
      "min": [
        -9.46868896484375,
        -11.147682189941406,
        9.291313171386719
      ],
      "type": "VEC3"
    },
    {
      "bufferView": 2,
      "byteOffset": 2359200,
      "componentType": 5126,
      "count": 65532,
      "max": [
        0.9997584819793701,
        0.9999861121177673,
        0.9999352693557739
      ],
      "min": [
        -0.9989091157913208,
        -0.9999799132347107,
        -0.9999962449073792
      ],
      "type": "VEC3"
    },
    {
      "bufferView": 1,
      "byteOffset": 524272,
      "componentType": 5126,
      "count": 65532,
      "max": [
        0.9998779892921448,
        0.4100340008735657
      ],
      "min": [
        0.00012199999764561653,
        0.00012199999764561653
      ],
      "type": "VEC2"
    },
    {
      "bufferView": 0,
      "byteOffset": 1194936,
      "componentType": 5125,
      "count": 221373,
      "type": "SCALAR"
    },
    {
      "bufferView": 2,
      "byteOffset": 3145584,
      "componentType": 5126,
      "count": 65532,
      "max": [
        10.898275375366211,
        6.191773891448975,
        37.83771514892578
      ],
      "min": [
        -9.724349021911621,
        -12.214877128601074,
        -0.2657909393310547
      ],
      "type": "VEC3"
    },
    {
      "bufferView": 2,
      "byteOffset": 3931968,
      "componentType": 5126,
      "count": 65532,
      "max": [
        0.9999556541442871,
        0.9999984502792358,
        0.9999999403953552
      ],
      "min": [
        -0.9998422265052795,
        -0.999937117099762,
        -0.9999872446060181
      ],
      "type": "VEC3"
    },
    {
      "bufferView": 1,
      "byteOffset": 1048528,
      "componentType": 5126,
      "count": 65532,
      "max": [
        0.9998779892921448,
        0.37439000606536865
      ],
      "min": [
        0.00012199999764561653,
        0.00012199999764561653
      ],
      "type": "VEC2"
    },
    {
      "bufferView": 0,
      "byteOffset": 2080428,
      "componentType": 5125,
      "count": 278148,
      "type": "SCALAR"
    },
    {
      "bufferView": 2,
      "byteOffset": 4718352,
      "componentType": 5126,
      "count": 65532,
      "max": [
        9.925463676452637,
        10.87770938873291,
        14.563015937805176
      ],
      "min": [
        -11.150175094604492,
        -8.067805290222168,
        -0.2509288787841797
      ],
      "type": "VEC3"
    },
    {
      "bufferView": 2,
      "byteOffset": 5504736,
      "componentType": 5126,
      "count": 65532,
      "max": [
        0.9997807145118713,
        0.999993085861206,
        0.9999999403953552
      ],
      "min": [
        -0.9998250007629395,
        -0.9999257922172546,
        -0.9999828934669495
      ],
      "type": "VEC3"
    },
    {
      "bufferView": 1,
      "byteOffset": 1572784,
      "componentType": 5126,
      "count": 65532,
      "max": [
        0.9998779892921448,
        0.3763290047645569
      ],
      "min": [
        0.00012199999764561653,
        0.00012199999764561653
      ],
      "type": "VEC2"
    },
    {
      "bufferView": 0,
      "byteOffset": 3193020,
      "componentType": 5125,
      "count": 270501,
      "type": "SCALAR"
    },
    {
      "bufferView": 2,
      "byteOffset": 6291120,
      "componentType": 5126,
      "count": 65532,
      "max": [
        9.512809753417969,
        10.676344871520996,
        32.22239303588867
      ],
      "min": [
        -11.159370422363281,
        -8.916292190551758,
        0.2723217010498047
      ],
      "type": "VEC3"
    },
    {
      "bufferView": 2,
      "byteOffset": 7077504,
      "componentType": 5126,
      "count": 65532,
      "max": [
        0.999981164932251,
        0.999931275844574,
        0.9999837875366211
      ],
      "min": [
        -0.9999409317970276,
        -0.9999752044677734,
        -0.9998377561569214
      ],
      "type": "VEC3"
    },
    {
      "bufferView": 1,
      "byteOffset": 2097040,
      "componentType": 5126,
      "count": 65532,
      "max": [
        0.9998779892921448,
        0.3763430118560791
      ],
      "min": [
        0.00012199999764561653,
        0.00012199999764561653
      ],
      "type": "VEC2"
    },
    {
      "bufferView": 0,
      "byteOffset": 4275024,
      "componentType": 5125,
      "count": 231102,
      "type": "SCALAR"
    },
    {
      "bufferView": 2,
      "byteOffset": 7863888,
      "componentType": 5126,
      "count": 65532,
      "max": [
        11.360283851623535,
        7.145803451538086,
        34.744117736816406
      ],
      "min": [
        -10.583109855651855,
        -10.204504013061523,
        -0.289703369140625
      ],
      "type": "VEC3"
    },
    {
      "bufferView": 2,
      "byteOffset": 8650272,
      "componentType": 5126,
      "count": 65532,
      "max": [
        0.9999996423721313,
        0.9998326301574707,
        0.9996792674064636
      ],
      "min": [
        -0.9999510049819946,
        -0.9995748996734619,
        -0.9999987483024597
      ],
      "type": "VEC3"
    },
    {
      "bufferView": 1,
      "byteOffset": 2621296,
      "componentType": 5126,
      "count": 65532,
      "max": [
        0.9998779892921448,
        0.37439000606536865
      ],
      "min": [
        0.00012199999764561653,
        0.00012199999764561653
      ],
      "type": "VEC2"
    },
    {
      "bufferView": 0,
      "byteOffset": 5199432,
      "componentType": 5125,
      "count": 283617,
      "type": "SCALAR"
    },
    {
      "bufferView": 2,
      "byteOffset": 9436656,
      "componentType": 5126,
      "count": 65532,
      "max": [
        11.542318344116211,
        7.029768466949463,
        32.581783294677734
      ],
      "min": [
        -5.386788845062256,
        -10.549308776855469,
        6.725715637207031
      ],
      "type": "VEC3"
    },
    {
      "bufferView": 2,
      "byteOffset": 10223040,
      "componentType": 5126,
      "count": 65532,
      "max": [
        0.9999996423721313,
        0.9997747540473938,
        0.9998948574066162
      ],
      "min": [
        -0.9999986886978149,
        -0.9999926686286926,
        -0.9999386072158813
      ],
      "type": "VEC3"
    },
    {
      "bufferView": 1,
      "byteOffset": 3145552,
      "componentType": 5126,
      "count": 65532,
      "max": [
        0.9998779892921448,
        0.3875730037689209
      ],
      "min": [
        0.00012199999764561653,
        0.00012199999764561653
      ],
      "type": "VEC2"
    },
    {
      "bufferView": 0,
      "byteOffset": 6333900,
      "componentType": 5125,
      "count": 206553,
      "type": "SCALAR"
    },
    {
      "bufferView": 2,
      "byteOffset": 11009424,
      "componentType": 5126,
      "count": 65532,
      "max": [
        11.106939315795898,
        7.6352314949035645,
        41.078125
      ],
      "min": [
        -9.15505313873291,
        -10.155854225158691,
        0.919342041015625
      ],
      "type": "VEC3"
    },
    {
      "bufferView": 2,
      "byteOffset": 11795808,
      "componentType": 5126,
      "count": 65532,
      "max": [
        0.9999136924743652,
        0.9985123872756958,
        0.9999832510948181
      ],
      "min": [
        -0.9999507665634155,
        -0.9999555945396423,
        -0.9999872446060181
      ],
      "type": "VEC3"
    },
    {
      "bufferView": 1,
      "byteOffset": 3669808,
      "componentType": 5126,
      "count": 65532,
      "max": [
        0.9998779892921448,
        0.38220199942588806
      ],
      "min": [
        0.00012199999764561653,
        0.00012199999764561653
      ],
      "type": "VEC2"
    },
    {
      "bufferView": 0,
      "byteOffset": 7160112,
      "componentType": 5125,
      "count": 262158,
      "type": "SCALAR"
    },
    {
      "bufferView": 2,
      "byteOffset": 12582192,
      "componentType": 5126,
      "count": 65532,
      "max": [
        10.898275375366211,
        10.408356666564941,
        26.47011947631836
      ],
      "min": [
        -10.38553237915039,
        -9.321545600891113,
        0.9068145751953125
      ],
      "type": "VEC3"
    },
    {
      "bufferView": 2,
      "byteOffset": 13368576,
      "componentType": 5126,
      "count": 65532,
      "max": [
        0.9999993443489075,
        0.9997313022613525,
        0.9994919896125793
      ],
      "min": [
        -0.9999827146530151,
        -0.9998494386672974,
        -0.9999067187309265
      ],
      "type": "VEC3"
    },
    {
      "bufferView": 1,
      "byteOffset": 4194064,
      "componentType": 5126,
      "count": 65532,
      "max": [
        0.9998779892921448,
        0.3839679956436157
      ],
      "min": [
        0.00012199999764561653,
        0.00012199999764561653
      ],
      "type": "VEC2"
    },
    {
      "bufferView": 0,
      "byteOffset": 8208744,
      "componentType": 5125,
      "count": 263985,
      "type": "SCALAR"
    },
    {
      "bufferView": 2,
      "byteOffset": 14154960,
      "componentType": 5126,
      "count": 65532,
      "max": [
        11.204985618591309,
        7.172818660736084,
        34.699161529541016
      ],
      "min": [
        -10.342742919921875,
        -9.428363800048828,
        9.803023338317871
      ],
      "type": "VEC3"
    },
    {
      "bufferView": 2,
      "byteOffset": 14941344,
      "componentType": 5126,
      "count": 65532,
      "max": [
        0.999970018863678,
        0.9993741512298584,
        0.9997628927230835
      ],
      "min": [
        -0.9999783635139465,
        -0.9999985098838806,
        -0.9997403621673584
      ],
      "type": "VEC3"
    },
    {
      "bufferView": 1,
      "byteOffset": 4718320,
      "componentType": 5126,
      "count": 65532,
      "max": [
        0.9998779892921448,
        0.3836669921875
      ],
      "min": [
        0.00012199999764561653,
        0.00012199999764561653
      ],
      "type": "VEC2"
    },
    {
      "bufferView": 0,
      "byteOffset": 9264684,
      "componentType": 5125,
      "count": 193515,
      "type": "SCALAR"
    },
    {
      "bufferView": 2,
      "byteOffset": 15727728,
      "componentType": 5126,
      "count": 65532,
      "max": [
        10.314019203186035,
        11.022884368896484,
        41.09029769897461
      ],
      "min": [
        -11.130987167358398,
        -9.364584922790527,
        -0.04509735107421875
      ],
      "type": "VEC3"
    },
    {
      "bufferView": 2,
      "byteOffset": 16514112,
      "componentType": 5126,
      "count": 65532,
      "max": [
        0.9999406933784485,
        0.999985933303833,
        0.9997212290763855
      ],
      "min": [
        -0.9998041987419128,
        -0.9999862909317017,
        -0.9999966025352478
      ],
      "type": "VEC3"
    },
    {
      "bufferView": 1,
      "byteOffset": 5242576,
      "componentType": 5126,
      "count": 65532,
      "max": [
        0.9998779892921448,
        0.3851320147514343
      ],
      "min": [
        0.00012199999764561653,
        0.00012199999764561653
      ],
      "type": "VEC2"
    },
    {
      "bufferView": 0,
      "byteOffset": 10038744,
      "componentType": 5125,
      "count": 228585,
      "type": "SCALAR"
    },
    {
      "bufferView": 2,
      "byteOffset": 17300496,
      "componentType": 5126,
      "count": 65532,
      "max": [
        10.123658180236816,
        10.877418518066406,
        26.321504592895508
      ],
      "min": [
        -10.279375076293945,
        -8.54863166809082,
        0.005779266357421875
      ],
      "type": "VEC3"
    },
    {
      "bufferView": 2,
      "byteOffset": 18086880,
      "componentType": 5126,
      "count": 65532,
      "max": [
        0.9999786019325256,
        0.9998902082443237,
        0.9999560713768005
      ],
      "min": [
        -0.9997392296791077,
        -0.9999508261680603,
        -0.9999547600746155
      ],
      "type": "VEC3"
    },
    {
      "bufferView": 1,
      "byteOffset": 5766832,
      "componentType": 5126,
      "count": 65532,
      "max": [
        0.9998779892921448,
        0.4039900004863739
      ],
      "min": [
        0.00012199999764561653,
        0.00012199999764561653
      ],
      "type": "VEC2"
    },
    {
      "bufferView": 0,
      "byteOffset": 10953084,
      "componentType": 5125,
      "count": 234018,
      "type": "SCALAR"
    },
    {
      "bufferView": 2,
      "byteOffset": 18873264,
      "componentType": 5126,
      "count": 11350,
      "max": [
        -4.7623372077941895,
        7.127316951751709,
        32.214134216308594
      ],
      "min": [
        -10.397918701171875,
        -3.517693519592285,
        15.013860702514648
      ],
      "type": "VEC3"
    },
    {
      "bufferView": 2,
      "byteOffset": 19009464,
      "componentType": 5126,
      "count": 11350,
      "max": [
        0.9999968409538269,
        0.9842905402183533,
        0.999636709690094
      ],
      "min": [
        -0.9975250363349915,
        -0.9999713897705078,
        -0.9995298981666565
      ],
      "type": "VEC3"
    },
    {
      "bufferView": 1,
      "byteOffset": 6291088,
      "componentType": 5126,
      "count": 11350,
      "max": [
        0.9998779892921448,
        0.2736940085887909
      ],
      "min": [
        0.00012199999764561653,
        0.00012199999764561653
      ],
      "type": "VEC2"
    },
    {
      "bufferView": 0,
      "byteOffset": 11889156,
      "componentType": 5125,
      "count": 27711,
      "type": "SCALAR"
    }
  ],
  "asset": {
    "extras": {
      "author": "The Royal Armoury (Livrustkammaren) (https://sketchfab.com/TheRoyalArmoury)",
      "license": "CC-BY-4.0 (http://creativecommons.org/licenses/by/4.0/)",
      "source": "https://sketchfab.com/3d-models/king-gustav-vasas-helmet-with-a-gilt-crown-b9766d88112141369b170070fb973c96",
      "title": "King Gustav Vasa's Helmet with a Gilt Crown"
    },
    "generator": "Sketchfab-12.68.0",
    "version": "2.0"
  },
  "bufferViews": [
    {
      "buffer": 0,
      "byteLength": 12000000,
      "name": "floatBufferViews",
      "target": 34963
    },
    {
      "buffer": 0,
      "byteLength": 6381888,
      "byteOffset": 12000000,
      "byteStride": 8,
      "name": "floatBufferViews",
      "target": 34962
    },
    {
      "buffer": 0,
      "byteLength": 19145664,
      "byteOffset": 18381888,
      "byteStride": 12,
      "name": "floatBufferViews",
      "target": 34962
    }
  ],
  "buffers": [
    {
      "byteLength": 37527552,
      "uri": "scene.bin"
    }
  ],
  "images": [
    {
      "uri": "textures/model_Material_u1_v1_baseColor.jpeg"
    }
  ],
  "materials": [
    {
      "doubleSided": true,
      "name": "model_Material_u1_v1",
      "pbrMetallicRoughness": {
        "baseColorFactor": [
          0.6420011752989234,
          0.6420011752989234,
          0.6420011752989234,
          1.0
        ],
        "baseColorTexture": {
          "index": 0
        },
        "roughnessFactor": 0.22
      }
    }
  ],
  "meshes": [
    {
      "name": "Object_0",
      "primitives": [
        {
          "attributes": {
            "NORMAL": 1,
            "POSITION": 0,
            "TEXCOORD_0": 2
          },
          "indices": 3,
          "material": 0,
          "mode": 4
        }
      ]
    },
    {
      "name": "Object_1",
      "primitives": [
        {
          "attributes": {
            "NORMAL": 5,
            "POSITION": 4,
            "TEXCOORD_0": 6
          },
          "indices": 7,
          "material": 0,
          "mode": 4
        }
      ]
    },
    {
      "name": "Object_2",
      "primitives": [
        {
          "attributes": {
            "NORMAL": 9,
            "POSITION": 8,
            "TEXCOORD_0": 10
          },
          "indices": 11,
          "material": 0,
          "mode": 4
        }
      ]
    },
    {
      "name": "Object_3",
      "primitives": [
        {
          "attributes": {
            "NORMAL": 13,
            "POSITION": 12,
            "TEXCOORD_0": 14
          },
          "indices": 15,
          "material": 0,
          "mode": 4
        }
      ]
    },
    {
      "name": "Object_4",
      "primitives": [
        {
          "attributes": {
            "NORMAL": 17,
            "POSITION": 16,
            "TEXCOORD_0": 18
          },
          "indices": 19,
          "material": 0,
          "mode": 4
        }
      ]
    },
    {
      "name": "Object_5",
      "primitives": [
        {
          "attributes": {
            "NORMAL": 21,
            "POSITION": 20,
            "TEXCOORD_0": 22
          },
          "indices": 23,
          "material": 0,
          "mode": 4
        }
      ]
    },
    {
      "name": "Object_6",
      "primitives": [
        {
          "attributes": {
            "NORMAL": 25,
            "POSITION": 24,
            "TEXCOORD_0": 26
          },
          "indices": 27,
          "material": 0,
          "mode": 4
        }
      ]
    },
    {
      "name": "Object_7",
      "primitives": [
        {
          "attributes": {
            "NORMAL": 29,
            "POSITION": 28,
            "TEXCOORD_0": 30
          },
          "indices": 31,
          "material": 0,
          "mode": 4
        }
      ]
    },
    {
      "name": "Object_8",
      "primitives": [
        {
          "attributes": {
            "NORMAL": 33,
            "POSITION": 32,
            "TEXCOORD_0": 34
          },
          "indices": 35,
          "material": 0,
          "mode": 4
        }
      ]
    },
    {
      "name": "Object_9",
      "primitives": [
        {
          "attributes": {
            "NORMAL": 37,
            "POSITION": 36,
            "TEXCOORD_0": 38
          },
          "indices": 39,
          "material": 0,
          "mode": 4
        }
      ]
    },
    {
      "name": "Object_10",
      "primitives": [
        {
          "attributes": {
            "NORMAL": 41,
            "POSITION": 40,
            "TEXCOORD_0": 42
          },
          "indices": 43,
          "material": 0,
          "mode": 4
        }
      ]
    },
    {
      "name": "Object_11",
      "primitives": [
        {
          "attributes": {
            "NORMAL": 45,
            "POSITION": 44,
            "TEXCOORD_0": 46
          },
          "indices": 47,
          "material": 0,
          "mode": 4
        }
      ]
    },
    {
      "name": "Object_12",
      "primitives": [
        {
          "attributes": {
            "NORMAL": 49,
            "POSITION": 48,
            "TEXCOORD_0": 50
          },
          "indices": 51,
          "material": 0,
          "mode": 4
        }
      ]
    }
  ],
  "nodes": [
    {
      "children": [
        1
      ],
      "matrix": [
        0.3860416114330292,
        2.0483200869920727e-16,
        -0.9224813580513,
        0.0,
        -0.9224813580513,
        8.571845709526941e-17,
        -0.3860416114330292,
        0.0,
        0.0,
        1.0,
        2.220446049250313e-16,
        0.0,
        -0.5322880148887634,
        -2.1514530981140822e-17,
        0.0968928337097168,
        1.0
      ],
      "name": "Sketchfab_model"
    },
    {
      "children": [
        2,
        3,
        4,
        5,
        6,
        7,
        8,
        9,
        10,
        11,
        12,
        13,
        14
      ],
      "name": "model.obj.cleaner.materialmerger.gles"
    },
    {
      "mesh": 0,
      "name": "Object_2"
    },
    {
      "mesh": 1,
      "name": "Object_3"
    },
    {
      "mesh": 2,
      "name": "Object_4"
    },
    {
      "mesh": 3,
      "name": "Object_5"
    },
    {
      "mesh": 4,
      "name": "Object_6"
    },
    {
      "mesh": 5,
      "name": "Object_7"
    },
    {
      "mesh": 6,
      "name": "Object_8"
    },
    {
      "mesh": 7,
      "name": "Object_9"
    },
    {
      "mesh": 8,
      "name": "Object_10"
    },
    {
      "mesh": 9,
      "name": "Object_11"
    },
    {
      "mesh": 10,
      "name": "Object_12"
    },
    {
      "mesh": 11,
      "name": "Object_13"
    },
    {
      "mesh": 12,
      "name": "Object_14"
    }
  ],
  "samplers": [
    {
      "magFilter": 9729,
      "minFilter": 9987,
      "wrapS": 10497,
      "wrapT": 10497
    }
  ],
  "scene": 0,
  "scenes": [
    {
      "name": "Sketchfab_Scene",
      "nodes": [
        0
      ]
    }
  ],
  "textures": [
    {
      "sampler": 0,
      "source": 0
    }
  ]
}
